<svg xmlns="http://www.w3.org/2000/svg" viewBox="0 0 220 220" role="img" aria-label="Cute blue stitch style character">
  <defs>
    <linearGradient id="bg" x1="0" y1="0" x2="0" y2="1">
      <stop offset="0%" stop-color="#9ddfff"/>
      <stop offset="100%" stop-color="#5aa7dd"/>
    </linearGradient>
    <linearGradient id="face" x1="0" y1="0" x2="1" y2="1">
      <stop offset="0%" stop-color="#8ad2ff"/>
      <stop offset="100%" stop-color="#4a94d1"/>
    </linearGradient>
  </defs>

  <rect x="20" y="20" width="180" height="180" rx="24" fill="url(#bg)" opacity="0.2"/>
  <ellipse cx="110" cy="128" rx="64" ry="56" fill="url(#face)"/>
  <ellipse cx="110" cy="150" rx="36" ry="24" fill="#8fd7ff"/>

  <ellipse cx="56" cy="92" rx="20" ry="38" fill="#4d99d5" transform="rotate(-22 56 92)"/>
  <ellipse cx="164" cy="92" rx="20" ry="38" fill="#4d99d5" transform="rotate(22 164 92)"/>
  <ellipse cx="58" cy="92" rx="10" ry="20" fill="#87d0ff" transform="rotate(-22 58 92)"/>
  <ellipse cx="162" cy="92" rx="10" ry="20" fill="#87d0ff" transform="rotate(22 162 92)"/>

  <ellipse cx="86" cy="120" rx="14" ry="16" fill="#0f2f57"/>
  <ellipse cx="134" cy="120" rx="14" ry="16" fill="#0f2f57"/>
  <ellipse cx="90" cy="116" rx="4" ry="5" fill="#ffffff"/>
  <ellipse cx="138" cy="116" rx="4" ry="5" fill="#ffffff"/>

  <ellipse cx="110" cy="136" rx="18" ry="12" fill="#1f4f87"/>
  <ellipse cx="110" cy="140" rx="10" ry="7" fill="#2f6ba8"/>
  <circle cx="103" cy="136" r="2" fill="#0a2a4a"/>
  <circle cx="117" cy="136" r="2" fill="#0a2a4a"/>
  <path d="M94 154 Q110 168 126 154" fill="none" stroke="#0f3d6a" stroke-width="5" stroke-linecap="round"/>
</svg>
